<?xml version="1.0" encoding="UTF-8" standalone="no"?>
<svg
   xmlns:dc="http://purl.org/dc/elements/1.1/"
   xmlns:cc="http://creativecommons.org/ns#"
   xmlns:rdf="http://www.w3.org/1999/02/22-rdf-syntax-ns#"
   xmlns:svg="http://www.w3.org/2000/svg"
   xmlns="http://www.w3.org/2000/svg"
   xmlns:sodipodi="http://sodipodi.sourceforge.net/DTD/sodipodi-0.dtd"
   xmlns:inkscape="http://www.inkscape.org/namespaces/inkscape"
   id="Flat"
   height="512"
   viewBox="0 0 512 512"
   width="512"
   version="1.1"
   sodipodi:docname="file.svg"
   inkscape:version="1.0 (b51213c273, 2020-08-10)">
  <metadata
     id="metadata45">
    <rdf:RDF>
      <cc:Work
         rdf:about="">
        <dc:format>image/svg+xml</dc:format>
        <dc:type
           rdf:resource="http://purl.org/dc/dcmitype/StillImage" />
      </cc:Work>
    </rdf:RDF>
  </metadata>
  <defs
     id="defs43" />
  <sodipodi:namedview
     pagecolor="#ffffff"
     bordercolor="#666666"
     borderopacity="1"
     objecttolerance="10"
     gridtolerance="10"
     guidetolerance="10"
     inkscape:pageopacity="0"
     inkscape:pageshadow="2"
     inkscape:window-width="2494"
     inkscape:window-height="1385"
     id="namedview41"
     showgrid="false"
     inkscape:zoom="1.8203125"
     inkscape:cx="256"
     inkscape:cy="256"
     inkscape:window-x="66"
     inkscape:window-y="27"
     inkscape:window-maximized="1"
     inkscape:current-layer="Flat" />
  <path
     d="m392 488h-272a48 48 0 0 1 -48-48v-368a48 48 0 0 1 48-48h224l96 96v320a48 48 0 0 1 -48 48z"
     fill="#cfd2fc"
     id="path2"
     style="fill:#335eea;fill-opacity:0.1" />
  <path
     d="m72 360h368a0 0 0 0 1 0 0v80a48 48 0 0 1 -48 48h-272a48 48 0 0 1 -48-48v-80a0 0 0 0 1 0 0z"
     fill="#5153ff"
     id="path4"
     style="fill:#0081c9;fill-opacity:1" />
  <g
     fill="#8690fa"
     id="g32"
     style="fill:#0081c9;fill-opacity:1">
    <path
       d="m440 120h-48a48 48 0 0 1 -48-48v-48z"
       id="path6"
       style="fill:#0081c9;fill-opacity:1" />
    <path
       d="m376 176h-176a8 8 0 0 1 0-16h176a8 8 0 0 1 0 16z"
       id="path8"
       style="fill:#0081c9;fill-opacity:1" />
    <path
       d="m280 208h-144a8 8 0 0 1 0-16h144a8 8 0 0 1 0 16z"
       id="path10"
       style="fill:#0081c9;fill-opacity:1" />
    <path
       d="m376 240h-128a8 8 0 0 1 0-16h128a8 8 0 0 1 0 16z"
       id="path12"
       style="fill:#0081c9;fill-opacity:1" />
    <path
       d="m320 272h-184a8 8 0 0 1 0-16h184a8 8 0 0 1 0 16z"
       id="path14"
       style="fill:#0081c9;fill-opacity:1" />
    <path
       d="m168 176h-32a8 8 0 0 1 0-16h32a8 8 0 0 1 0 16z"
       id="path16"
       style="fill:#0081c9;fill-opacity:1" />
    <path
       d="m376 208h-64a8 8 0 0 1 0-16h64a8 8 0 0 1 0 16z"
       id="path18"
       style="fill:#0081c9;fill-opacity:1" />
    <path
       d="m216 240h-80a8 8 0 0 1 0-16h80a8 8 0 0 1 0 16z"
       id="path20"
       style="fill:#0081c9;fill-opacity:1" />
    <path
       d="m376 272h-24a8 8 0 0 1 0-16h24a8 8 0 0 1 0 16z"
       id="path22"
       style="fill:#0081c9;fill-opacity:1" />
    <path
       d="m184 304h-48a8 8 0 0 1 0-16h48a8 8 0 0 1 0 16z"
       id="path24"
       style="fill:#0081c9;fill-opacity:1" />
    <path
       d="m216 144h-80a8 8 0 0 1 0-16h80a8 8 0 0 1 0 16z"
       id="path26"
       style="fill:#0081c9;fill-opacity:1" />
    <path
       d="m296 304h-80a8 8 0 0 1 0-16h80a8 8 0 0 1 0 16z"
       id="path28"
       style="fill:#0081c9;fill-opacity:1" />
    <path
       d="m376 304h-48a8 8 0 0 1 0-16h48a8 8 0 0 1 0 16z"
       id="path30"
       style="fill:#0081c9;fill-opacity:1" />
  </g>
  <text
     xml:space="preserve"
     style="font-style:normal;font-variant:normal;font-weight:500;font-stretch:normal;font-size:117.45px;line-height:1.25;font-family:'HK Grotesk Pro';-inkscape-font-specification:'HK Grotesk Pro, Medium';font-variant-ligatures:normal;font-variant-caps:normal;font-variant-numeric:normal;font-variant-east-asian:normal;letter-spacing:0px;word-spacing:0px;fill:#ffffff;fill-opacity:1;stroke:none;stroke-width:0.61172;"
     x="163.23471"
     y="461.80399"
     id="text872"><tspan
       sodipodi:role="line"
       id="tspan870"
       x="163.23471"
       y="461.80399"
       style="font-style:normal;font-variant:normal;font-weight:500;font-stretch:normal;font-size:117.45px;font-family:'HK Grotesk Pro';-inkscape-font-specification:'HK Grotesk Pro, Medium';font-variant-ligatures:normal;font-variant-caps:normal;font-variant-numeric:normal;font-variant-east-asian:normal;stroke-width:0.61172;fill:#ffffff;fill-opacity:1;">MD</tspan></text>
</svg>
