<?xml version="1.0" encoding="UTF-8" standalone="no"?>
<svg
   xmlns:dc="http://purl.org/dc/elements/1.1/"
   xmlns:cc="http://creativecommons.org/ns#"
   xmlns:rdf="http://www.w3.org/1999/02/22-rdf-syntax-ns#"
   xmlns:svg="http://www.w3.org/2000/svg"
   xmlns="http://www.w3.org/2000/svg"
   xmlns:sodipodi="http://sodipodi.sourceforge.net/DTD/sodipodi-0.dtd"
   xmlns:inkscape="http://www.inkscape.org/namespaces/inkscape"
   enable-background="new 0 0 512 512"
   id="Layer_1"
   version="1.1"
   viewBox="0 0 443.88987 448"
   xml:space="preserve"
   width="443.88986"
   height="448"
   sodipodi:docname="mac.svg"
   inkscape:version="1.0 (b51213c273, 2020-08-10)"><sodipodi:namedview
     pagecolor="#ffffff"
     bordercolor="#666666"
     borderopacity="1"
     objecttolerance="10"
     gridtolerance="10"
     guidetolerance="10"
     inkscape:pageopacity="0"
     inkscape:pageshadow="2"
     inkscape:window-width="2494"
     inkscape:window-height="1385"
     id="namedview9"
     showgrid="false"
     inkscape:zoom="2.0803571"
     inkscape:cx="221.94493"
     inkscape:cy="224"
     inkscape:window-x="66"
     inkscape:window-y="27"
     inkscape:window-maximized="1"
     inkscape:current-layer="g12" /><metadata
     id="metadata19"><rdf:RDF><cc:Work
         rdf:about=""><dc:format>image/svg+xml</dc:format><dc:type
           rdf:resource="http://purl.org/dc/dcmitype/StillImage" /><dc:title /></cc:Work></rdf:RDF></metadata><defs
     id="defs17" /><g
     id="g12"
     transform="translate(-8.3805237,-2.9125519)"><ellipse
       style="fill:#ffffff;fill-opacity:1;stroke-width:0.939007;stroke-linejoin:round;paint-order:stroke markers fill"
       id="path844"
       cx="230.32545"
       cy="226.91255"
       rx="221.94493"
       ry="224" /><path
       d="m 94.139049,243.00254 c 0.267935,-27.50805 4.912153,-49.47878 19.469991,-68.14496 16.79063,-21.52416 39.02929,-32.15228 66.62666,-29.56223 9.10981,0.89312 17.86238,3.84041 25.98976,7.85944 12.50367,6.25184 24.29284,5.89458 36.70719,0.0893 10.98535,-5.1801 22.5959,-8.66326 34.74232,-9.10982 25.36457,-1.07174 46.44217,7.94876 62.96487,27.41875 1.69693,1.96486 2.2328,3.30454 -0.62518,5.18009 -45.19181,30.45535 -40.99415,96.36752 7.68082,121.28554 2.32211,1.16105 3.48317,2.05417 2.41142,5.00146 -9.55637,26.2577 -23.66765,49.6574 -43.85213,69.03809 -10.18156,9.73499 -22.32797,12.77159 -36.26062,9.46705 -8.30602,-1.96486 -15.89752,-5.71595 -24.0249,-8.306 -17.14788,-5.53734 -33.13471,-1.42899 -49.03222,5.00147 -11.87849,4.82283 -24.0249,7.77013 -36.17132,1.07173 -8.21669,-4.46559 -14.55783,-11.3426 -20.45242,-18.39824 C 110.75105,325.61603 95.925287,284.53257 94.139049,243.00254 Z"
       fill="#6c6c6c"
       id="path4"
       style="stroke-width:0.893119;fill:#1b2a4e;fill-opacity:1" /><path
       d="m 221.85504,134.04204 c 0.53587,-25.72182 19.02343,-51.622259 43.04832,-60.910698 5.53734,-2.143486 11.2533,-3.840411 16.96927,-5.18009 2.50072,-0.535871 3.92972,-0.178624 3.92972,2.85798 -0.35725,26.972198 -11.61055,48.139108 -34.11715,62.964888 -6.7877,4.46559 -14.64714,6.43044 -22.77452,6.96632 -7.14495,0.44656 -7.14495,0.35724 -7.05564,-6.6984 z"
       fill="#6e6e6e"
       id="path6"
       style="stroke-width:0.893119;fill:#1b2a4e;fill-opacity:1" /></g></svg>
