<?xml version="1.0" encoding="UTF-8" standalone="no"?>
<svg
   xmlns:dc="http://purl.org/dc/elements/1.1/"
   xmlns:cc="http://creativecommons.org/ns#"
   xmlns:rdf="http://www.w3.org/1999/02/22-rdf-syntax-ns#"
   xmlns:svg="http://www.w3.org/2000/svg"
   xmlns="http://www.w3.org/2000/svg"
   xmlns:sodipodi="http://sodipodi.sourceforge.net/DTD/sodipodi-0.dtd"
   xmlns:inkscape="http://www.inkscape.org/namespaces/inkscape"
   enable-background="new 0 0 512 512"
   id="Layer_1"
   version="1.1"
   viewBox="0 0 443.88986 448"
   xml:space="preserve"
   sodipodi:docname="windows.svg"
   width="443.88986"
   height="448"
   inkscape:version="1.0 (b51213c273, 2020-08-10)"><metadata
     id="metadata19"><rdf:RDF><cc:Work
         rdf:about=""><dc:format>image/svg+xml</dc:format><dc:type
           rdf:resource="http://purl.org/dc/dcmitype/StillImage" /></cc:Work></rdf:RDF></metadata><defs
     id="defs17" /><sodipodi:namedview
     pagecolor="#ffffff"
     bordercolor="#666666"
     borderopacity="1"
     objecttolerance="10"
     gridtolerance="10"
     guidetolerance="10"
     inkscape:pageopacity="0"
     inkscape:pageshadow="2"
     inkscape:window-width="2494"
     inkscape:window-height="1385"
     id="namedview15"
     showgrid="false"
     inkscape:zoom="1.8203125"
     inkscape:cx="239.23895"
     inkscape:cy="250.1749"
     inkscape:window-x="66"
     inkscape:window-y="27"
     inkscape:window-maximized="1"
     inkscape:current-layer="g12" /><g
     id="g12"
     transform="translate(-8.3805237,-2.9125519)"><ellipse
       style="fill:#ffffff;fill-opacity:1;stroke-width:0.939007;stroke-linejoin:round;paint-order:stroke markers fill"
       id="path844"
       cx="230.32545"
       cy="226.91255"
       rx="221.94493"
       ry="224" /><path
       d="m 284.29706,228.81125 c 22.95315,0 45.81699,0.0893 68.77014,-0.0893 3.66179,0 4.4656,1.16106 4.4656,4.55491 -0.0893,39.47585 -0.0893,78.86239 0,118.33824 0,3.48316 -0.98243,4.28697 -4.37628,3.84041 -45.1025,-6.34114 -90.11569,-12.59297 -135.21819,-18.84481 -6.87701,-0.98243 -6.87701,-0.89311 -6.87701,-7.77013 0,-31.97365 0.0893,-64.03662 -0.0893,-96.01027 0,-4.01903 1.16106,-5.00146 5.09078,-5.00146 22.77453,0.17862 45.54906,0.0893 68.32359,0.0893 -0.0893,0.26793 -0.0893,0.53587 -0.0893,0.89312 z"
       fill="#02aced"
       id="path4"
       style="stroke-width:0.893119;fill:#1b2a4e;fill-opacity:1" /><path
       d="m 283.8505,214.61066 c -22.77453,0 -45.54906,-0.0893 -68.32359,0.0893 -3.39385,0 -4.64422,-0.80381 -4.64422,-4.46559 0.17863,-32.86678 0.17863,-65.73354 0,-98.68962 0,-3.39385 1.16106,-4.64422 4.37628,-5.09078 45.90631,-6.34114 91.90193,-12.682285 137.80823,-19.202051 3.57248,-0.535871 4.37629,0.357248 4.28697,3.751097 -0.0893,39.475854 -0.0893,78.862394 0,118.338234 0,4.01903 -1.60761,4.64421 -4.91215,4.64421 -22.86384,-0.0893 -45.81699,0 -68.77015,0 0.17863,0.17863 0.17863,0.35725 0.17863,0.62519 z"
       fill="#02aced"
       id="path6"
       style="stroke-width:0.893119;fill:#1b2a4e;fill-opacity:1" /><path
       d="m 143.2736,227.7395 c 16.96926,0 33.93851,0.0893 50.90777,-0.0893 3.7511,0 4.37628,1.33968 4.37628,4.64422 -0.0893,32.3309 -0.17862,64.57249 0,96.90339 0,3.92972 -1.5183,4.46559 -4.73353,3.92972 -15.45095,-2.2328 -30.90191,-4.46559 -46.35286,-6.60908 -18.57687,-2.59004 -37.06443,-5.18009 -55.730613,-7.59151 -2.947295,-0.35725 -3.572478,-1.60761 -3.572478,-4.28697 0.08931,-27.95462 0.08931,-55.99855 0,-83.95316 0,-2.85798 0.803807,-3.7511 3.751101,-3.7511 17.14788,0.17862 34.20645,0.0893 51.35433,0.0893 0,0.26793 0,0.44656 0,0.71449 z"
       fill="#02aced"
       id="path8"
       style="stroke-width:0.893119;fill:#1b2a4e;fill-opacity:1" /><path
       d="m 145.05984,215.86102 c -17.68375,0 -35.36751,-0.0893 -53.051258,0.0893 -2.857983,0 -3.929725,-0.80381 -3.929725,-3.7511 0.08931,-28.13324 0.08931,-56.17717 0,-84.31041 0,-3.0366 1.339678,-3.66178 3.840413,-4.01903 22.06003,-3.03661 44.12007,-6.16252 66.26941,-9.19913 12.05711,-1.69692 24.11421,-3.21522 36.17132,-5.09077 3.30453,-0.53587 4.10834,0.44656 4.10834,3.66178 -0.0893,32.59884 -0.0893,65.10835 0,97.70719 0,3.48316 -1.16105,4.28697 -4.37628,4.28697 -16.34407,-0.0893 -32.68815,-0.0893 -49.03222,-0.0893 0,0.0893 0,0.44656 0,0.71449 z"
       fill="#02aced"
       id="path10"
       style="stroke-width:0.893119;fill:#1b2a4e;fill-opacity:1" /></g></svg>
