<?xml version="1.0" encoding="UTF-8" standalone="no"?>
<svg
   xmlns:dc="http://purl.org/dc/elements/1.1/"
   xmlns:cc="http://creativecommons.org/ns#"
   xmlns:rdf="http://www.w3.org/1999/02/22-rdf-syntax-ns#"
   xmlns:svg="http://www.w3.org/2000/svg"
   xmlns="http://www.w3.org/2000/svg"
   height="24"
   width="24"
   id="Reddit_logo"
   data-name="Reddit logo"
   viewBox="0 0 24 24"
   version="1.1">
  <metadata
     id="metadata2097">
    <rdf:RDF>
      <cc:Work
         rdf:about="">
        <dc:format>image/svg+xml</dc:format>
        <dc:type
           rdf:resource="http://purl.org/dc/dcmitype/StillImage" />
        <dc:title>Reddit logo</dc:title>
      </cc:Work>
    </rdf:RDF>
  </metadata>
  <defs
     id="defs2086">
    <style
       id="style2084">.cls-1{fill:#ff4500;}.cls-2{fill:#fff;}</style>
  </defs>
  <title
     id="title2088">Reddit logo</title>
  <circle
     r="12"
     class="cls-1"
     cx="12"
     cy="12"
     id="circle2090"
     style="fill:#869ab8;fill-opacity:1;stroke-width:0.244898" />
  <path
     style="stroke-width:0.244898"
     class="cls-2"
     d="m 12.658776,4.3567347 a 0.39673469,0.39673469 0 0 1 0.472653,-0.2987755 l 3.242449,0.717551 a 1.2832653,1.2832653 0 1 1 -0.134694,0.717551 L 13.300408,4.8416327 12.303673,9.127347 a 9.2497959,9.2497959 0 0 1 5.32898,1.763265 1.8881633,1.8881633 0 0 1 2.897143,0.227755 1.8440816,1.8440816 0 0 1 0.100408,0.178776 1.9591837,1.9591837 0 0 1 -0.881633,2.620408 4.5722449,4.5722449 0 0 1 -1.959183,4.285714 A 9.6955102,9.6955102 0 0 1 12,19.949388 9.6906122,9.6906122 0 0 1 6.2106122,18.203265 4.5722449,4.5722449 0 0 1 4.2514286,13.917551 1.8440816,1.8440816 0 0 1 4.0726531,13.817143 1.9591837,1.9591837 0 0 1 3.4702041,11.123265 2.0253061,2.0253061 0 0 1 3.6906122,10.863673 1.8955102,1.8955102 0 0 1 6.3673469,10.890613 9.2522449,9.2522449 0 0 1 11.556735,9.129797 Z m 1.075102,9.1591833 a 1.2979592,1.2979592 0 1 0 1.297959,-1.297959 1.2955102,1.2955102 0 0 0 -1.297959,1.297959 z m 1.545306,3.57796 a 0.29877551,0.29877551 0 0 0 -0.318368,-0.489796 5.0595918,5.0595918 0 0 1 -5.921632,0 0.29877551,0.29877551 0 0 0 -0.3183677,0.489796 5.5493878,5.5493878 0 0 0 6.5583677,0 z m -7.6089799,-3.57796 a 1.2979592,1.2979592 0 1 0 1.2979592,-1.297959 1.2955102,1.2955102 0 0 0 -1.2979592,1.297959 z"
     id="path2092" />
</svg>
